REM DIRINDEX 1\2\4,1\2\5,1\2\6,1\3\7,1\3\8,1\3\9,1\3\10
REM DIRNAME folder01,folder02,folder03,folder04,folder05,folder06,folder07,folder08,folder09,folder10
TITLE ""
FILE "b_038.mp3" MP3
  TRACK 01 AUDIO
    TITLE "0:"
    INDEX 01 00:00:00
  TRACK 02 AUDIO
    TITLE "7:cjc057_05318"
    INDEX 01 00:00:11
  TRACK 03 AUDIO
    TITLE "0:"
    INDEX 01 00:01:28
  TRACK 04 AUDIO
    TITLE "8:cjc057_05319"
    INDEX 01 00:01:62
  TRACK 05 AUDIO
    TITLE "0:"
    INDEX 01 00:03:51
  TRACK 06 AUDIO
    TITLE "9:cjc057_05320"
    INDEX 01 00:04:19
  TRACK 07 AUDIO
    TITLE "0:"
    INDEX 01 00:07:07
  TRACK 08 AUDIO
    TITLE "7:cjc057_05321"
    INDEX 01 00:08:15
  TRACK 09 AUDIO
    TITLE "0:"
    INDEX 01 00:09:30
  TRACK 10 AUDIO
    TITLE "8:cjc057_05322"
    INDEX 01 00:09:63
  TRACK 11 AUDIO
    TITLE "0:"
    INDEX 01 00:11:66
  TRACK 12 AUDIO
    TITLE "9:cjc057_05323"
    INDEX 01 00:12:34
  TRACK 13 AUDIO
    TITLE "0:"
    INDEX 01 00:16:18
  TRACK 14 AUDIO
    TITLE "7:cjc057_05324"
    INDEX 01 00:17:27
  TRACK 15 AUDIO
    TITLE "0:"
    INDEX 01 00:18:46
  TRACK 16 AUDIO
    TITLE "8:cjc057_05325"
    INDEX 01 00:19:01
  TRACK 17 AUDIO
    TITLE "0:"
    INDEX 01 00:20:18
  TRACK 18 AUDIO
    TITLE "9:cjc057_05326"
    INDEX 01 00:20:63
  TRACK 19 AUDIO
    TITLE "0:"
    INDEX 01 00:24:06
  TRACK 20 AUDIO
    TITLE "7:cjc057_05327"
    INDEX 01 00:25:13
  TRACK 21 AUDIO
    TITLE "0:"
    INDEX 01 00:26:30
  TRACK 22 AUDIO
    TITLE "8:cjc057_05328"
    INDEX 01 00:26:64
  TRACK 23 AUDIO
    TITLE "0:"
    INDEX 01 00:28:12
  TRACK 24 AUDIO
    TITLE "9:cjc057_05329"
    INDEX 01 00:28:57
  TRACK 25 AUDIO
    TITLE "0:"
    INDEX 01 00:32:33
  TRACK 26 AUDIO
    TITLE "7:cjc057_05330"
    INDEX 01 00:33:38
  TRACK 27 AUDIO
    TITLE "0:"
    INDEX 01 00:34:55
  TRACK 28 AUDIO
    TITLE "8:cjc057_05331"
    INDEX 01 00:35:14
  TRACK 29 AUDIO
    TITLE "0:"
    INDEX 01 00:37:12
  TRACK 30 AUDIO
    TITLE "9:cjc057_05332"
    INDEX 01 00:37:57
  TRACK 31 AUDIO
    TITLE "0:"
    INDEX 01 00:41:04
  TRACK 32 AUDIO
    TITLE "7:cjc057_05333"
    INDEX 01 00:42:08
  TRACK 33 AUDIO
    TITLE "0:"
    INDEX 01 00:43:23
  TRACK 34 AUDIO
    TITLE "8:cjc057_05334"
    INDEX 01 00:43:54
  TRACK 35 AUDIO
    TITLE "0:"
    INDEX 01 00:46:17
  TRACK 36 AUDIO
    TITLE "9:cjc057_05335"
    INDEX 01 00:46:58
  TRACK 37 AUDIO
    TITLE "0:"
    INDEX 01 00:50:66
  TRACK 38 AUDIO
    TITLE "7:cjc057_05336"
    INDEX 01 00:52:00
  TRACK 39 AUDIO
    TITLE "0:"
    INDEX 01 00:53:17
  TRACK 40 AUDIO
    TITLE "8:cjc057_05337"
    INDEX 01 00:53:51
  TRACK 41 AUDIO
    TITLE "0:"
    INDEX 01 00:55:71
  TRACK 42 AUDIO
    TITLE "9:cjc057_05338"
    INDEX 01 00:56:41
  TRACK 43 AUDIO
    TITLE "0:"
    INDEX 01 01:00:08
  TRACK 44 AUDIO
    TITLE "7:cjc057_05339"
    INDEX 01 01:01:13
  TRACK 45 AUDIO
    TITLE "0:"
    INDEX 01 01:02:38
  TRACK 46 AUDIO
    TITLE "8:cjc057_05340"
    INDEX 01 01:02:71
  TRACK 47 AUDIO
    TITLE "0:"
    INDEX 01 01:05:21
  TRACK 48 AUDIO
    TITLE "9:cjc057_05341"
    INDEX 01 01:05:58
  TRACK 49 AUDIO
    TITLE "0:"
    INDEX 01 01:09:44
  TRACK 50 AUDIO
    TITLE "7:cjc057_05342"
    INDEX 01 01:10:55
  TRACK 51 AUDIO
    TITLE "0:"
    INDEX 01 01:11:66
  TRACK 52 AUDIO
    TITLE "8:cjc057_05343"
    INDEX 01 01:12:24
  TRACK 53 AUDIO
    TITLE "0:"
    INDEX 01 01:14:23
  TRACK 54 AUDIO
    TITLE "9:cjc057_05344"
    INDEX 01 01:14:65
  TRACK 55 AUDIO
    TITLE "0:"
    INDEX 01 01:18:17
  TRACK 56 AUDIO
    TITLE "7:cjc057_05345"
    INDEX 01 01:19:25
  TRACK 57 AUDIO
    TITLE "0:"
    INDEX 01 01:20:30
  TRACK 58 AUDIO
    TITLE "8:cjc057_05346"
    INDEX 01 01:20:59
  TRACK 59 AUDIO
    TITLE "0:"
    INDEX 01 01:21:74
  TRACK 60 AUDIO
    TITLE "9:cjc057_05347"
    INDEX 01 01:22:44
  TRACK 61 AUDIO
    TITLE "0:"
    INDEX 01 01:25:51
  TRACK 62 AUDIO
    TITLE "7:cjc057_05348"
    INDEX 01 01:26:62
  TRACK 63 AUDIO
    TITLE "0:"
    INDEX 01 01:27:69
  TRACK 64 AUDIO
    TITLE "8:cjc057_05349"
    INDEX 01 01:28:29
  TRACK 65 AUDIO
    TITLE "0:"
    INDEX 01 01:29:56
  TRACK 66 AUDIO
    TITLE "9:cjc057_05350"
    INDEX 01 01:30:26
  TRACK 67 AUDIO
    TITLE "0:"
    INDEX 01 01:34:05
  TRACK 68 AUDIO
    TITLE "7:cjc057_05351"
    INDEX 01 01:35:14
  TRACK 69 AUDIO
    TITLE "0:"
    INDEX 01 01:36:45
  TRACK 70 AUDIO
    TITLE "8:cjc057_05352"
    INDEX 01 01:37:03
  TRACK 71 AUDIO
    TITLE "0:"
    INDEX 01 01:38:42
  TRACK 72 AUDIO
    TITLE "9:cjc057_05353"
    INDEX 01 01:39:14
  TRACK 73 AUDIO
    TITLE "0:"
    INDEX 01 01:42:45
  TRACK 74 AUDIO
    TITLE "7:cjc057_05354"
    INDEX 01 01:43:52
  TRACK 75 AUDIO
    TITLE "0:"
    INDEX 01 01:44:72
  TRACK 76 AUDIO
    TITLE "8:cjc057_05355"
    INDEX 01 01:45:30
  TRACK 77 AUDIO
    TITLE "0:"
    INDEX 01 01:46:51
  TRACK 78 AUDIO
    TITLE "9:cjc057_05356"
    INDEX 01 01:47:21
  TRACK 79 AUDIO
    TITLE "0:"
    INDEX 01 01:50:45
